<svg width="48" height="48" viewBox="0 0 48 48" fill="none" xmlns="http://www.w3.org/2000/svg">
<path d="M40 0H8C3.58172 0 0 3.58172 0 8V40C0 44.4183 3.58172 48 8 48H40C44.4183 48 48 44.4183 48 40V8C48 3.58172 44.4183 0 40 0Z" fill="#C8A3F8"/>
<path d="M9.77715 8.0008C10.1189 7.99096 10.3818 8.07484 10.4189 8.08595C10.574 8.13234 10.6975 8.18989 10.7303 8.20508C10.8313 8.25187 10.936 8.30773 11.0178 8.35233C11.1958 8.44947 11.4366 8.58828 11.7189 8.75425C12.2901 9.08999 13.0965 9.57613 14.0537 10.1612C15.9709 11.333 18.5227 12.9191 21.0732 14.5299C23.6219 16.1396 26.1809 17.7817 28.108 19.0639C29.0681 19.7027 29.8908 20.2648 30.4814 20.6942C30.7715 20.9052 31.0381 21.1079 31.2451 21.2836C31.3429 21.3666 31.4741 21.4826 31.5963 21.616C31.6548 21.68 31.7559 21.7958 31.8541 21.9508C31.9099 22.0389 32.1795 22.457 32.1795 23.0589C32.1795 23.673 31.9165 24.1155 31.7932 24.301C31.6472 24.5205 31.4838 24.6917 31.3627 24.8079C31.117 25.0437 30.8237 25.2625 30.551 25.4505C29.9909 25.8365 29.2464 26.2762 28.4443 26.725C27.8483 27.0585 27.1906 27.4134 26.5092 27.7745C26.6351 27.84 26.7623 27.9052 26.8889 27.9721C27.8771 28.4948 28.922 29.0827 29.7393 29.6349C30.1404 29.9059 30.5543 30.2133 30.8896 30.5383C31.0564 30.6999 31.2566 30.9161 31.4268 31.1808C31.5815 31.4216 31.831 31.8859 31.8311 32.5018V39.9996C31.8311 39.9996 31.8311 40 29.8311 40L27.8311 39.9996V33.1846C27.7411 33.117 27.6316 33.0381 27.4998 32.949C26.8631 32.5188 25.969 32.0104 25.0186 31.5078C24.0801 31.0114 23.1358 30.5464 22.4225 30.204C22.3157 30.1527 22.2137 30.1055 22.1186 30.0602C21.2982 30.4837 20.5623 30.8611 19.9869 31.1531C19.9336 31.1801 19.8815 31.206 19.8311 31.2316V40H15.8311V22.0012H15.8369V19.5834L19.8252 22.0012H19.8311V26.7398C20.2478 26.5255 20.6928 26.2966 21.1533 26.0571C22.9605 25.1171 24.9463 24.0989 26.4908 23.2346C26.613 23.1663 26.7306 23.0988 26.8443 23.0339C26.5523 22.8356 26.234 22.6213 25.892 22.3937C24.0038 21.1373 21.4757 19.5145 18.9373 17.9113C16.4008 16.3093 13.8655 14.7339 11.9674 13.5738C11.9216 13.5458 11.8761 13.5181 11.8311 13.4906V40H7.83105V10.0026C7.83106 9.40577 8.10629 8.75831 8.70215 8.35038C9.16403 8.0342 9.61686 8.00543 9.77715 8.0008Z" fill="white"/>
<path d="M38.0404 8.01252C38.2652 8.03637 38.7377 8.12564 39.1721 8.51834C39.6691 8.96775 39.8311 9.55058 39.8311 10.0026V39.9996C39.8311 39.9996 39.7846 40 37.8311 40C35.8775 40 35.8311 39.9996 35.8311 39.9996V13.7198C35.5712 13.8959 35.3058 14.0754 35.0404 14.2557C34.064 14.9192 33.0872 15.586 32.3541 16.0872C31.9877 16.3377 31.6823 16.547 31.4686 16.6934C31.3617 16.7666 31.2777 16.8241 31.2205 16.8633C31.192 16.8829 31.17 16.8977 31.1553 16.9078C31.1479 16.9129 31.1422 16.9166 31.1385 16.9192L31.1373 16.92L31.1377 16.9227L31.1354 16.9211L31.1334 16.9231C31.1334 16.9231 31.132 16.922 31.1287 16.9172L27.4311 14.6034L29.44 13.2293L29.4428 13.2324C29.6261 13.1068 29.8472 12.9558 30.0963 12.7855C30.8311 12.2831 31.8117 11.6139 32.7924 10.9474C33.772 10.2817 34.7565 9.61596 35.4979 9.12141C35.8668 8.87529 36.1845 8.66563 36.4139 8.51834C36.5249 8.44706 36.6342 8.3782 36.724 8.32499C36.7603 8.3035 36.8372 8.258 36.9248 8.21485C36.9465 8.20416 37.0828 8.13564 37.2631 8.08283C37.3047 8.07064 37.626 7.96859 38.0404 8.01252Z" fill="white"/>
</svg>
