<svg width="24" height="24" viewBox="0 0 24 24" fill="none" xmlns="http://www.w3.org/2000/svg">
<path d="M16.3625 13H5.21252C4.92919 13 4.69169 12.9042 4.50002 12.7125C4.30836 12.5208 4.21252 12.2833 4.21252 12C4.21252 11.7167 4.30836 11.4792 4.50002 11.2875C4.69169 11.0958 4.92919 11 5.21252 11H16.3625L13.5125 8.15001C13.3125 7.95001 13.2167 7.71668 13.225 7.45001C13.2334 7.18335 13.3292 6.95001 13.5125 6.75001C13.7125 6.55001 13.95 6.44585 14.225 6.43751C14.5 6.42918 14.7375 6.52501 14.9375 6.72501L19.5125 11.3C19.6125 11.4 19.6834 11.5083 19.725 11.625C19.7667 11.7417 19.7875 11.8667 19.7875 12C19.7875 12.1333 19.7667 12.2583 19.725 12.375C19.6834 12.4917 19.6125 12.6 19.5125 12.7L14.9375 17.275C14.7375 17.475 14.5 17.5708 14.225 17.5625C13.95 17.5542 13.7125 17.45 13.5125 17.25C13.3292 17.05 13.2334 16.8167 13.225 16.55C13.2167 16.2833 13.3125 16.05 13.5125 15.85L16.3625 13Z" fill="black"/>
</svg>
