<svg width="24" height="24" viewBox="0 0 24 24" fill="none" xmlns="http://www.w3.org/2000/svg">
<path d="M15.7919 9.62233L7.90766 17.5066C7.70732 17.7069 7.47161 17.8071 7.20056 17.8071C6.9295 17.8071 6.6938 17.7069 6.49345 17.5066C6.2931 17.3062 6.19293 17.0705 6.19293 16.7995C6.19293 16.5284 6.2931 16.2927 6.49345 16.0924L14.3777 8.20812L10.3472 8.20812C10.0643 8.20812 9.83158 8.11089 9.64891 7.91644C9.46624 7.72198 9.36902 7.48923 9.35723 7.21817C9.35723 6.93533 9.45151 6.69373 9.64007 6.49338C9.82864 6.29304 10.0643 6.19286 10.3472 6.19286L16.8172 6.19286C16.9586 6.19286 17.0853 6.21938 17.1973 6.27241C17.3092 6.32545 17.4124 6.3991 17.5066 6.49338C17.6009 6.58767 17.6746 6.69078 17.7276 6.80274C17.7806 6.9147 17.8072 7.04139 17.8072 7.18281L17.8072 13.6528C17.8072 13.9357 17.707 14.1714 17.5066 14.3599C17.3063 14.5485 17.0647 14.6428 16.7819 14.6428C16.5108 14.631 16.278 14.5338 16.0836 14.3511C15.8891 14.1684 15.7919 13.9357 15.7919 13.6528V9.62233Z" fill="black"/>
</svg>
