<svg width="24" height="24" viewBox="0 0 24 24" fill="none" xmlns="http://www.w3.org/2000/svg">
<path d="M11 16.3625L11 5.21252C11 4.92919 11.0958 4.69169 11.2875 4.50002C11.4792 4.30836 11.7167 4.21252 12 4.21252C12.2833 4.21252 12.5208 4.30836 12.7125 4.50002C12.9042 4.69169 13 4.92919 13 5.21252L13 16.3625L15.85 13.5125C16.05 13.3125 16.2833 13.2167 16.55 13.225C16.8167 13.2334 17.05 13.3292 17.25 13.5125C17.45 13.7125 17.5542 13.95 17.5625 14.225C17.5708 14.5 17.475 14.7375 17.275 14.9375L12.7 19.5125C12.6 19.6125 12.4917 19.6834 12.375 19.725C12.2583 19.7667 12.1333 19.7875 12 19.7875C11.8667 19.7875 11.7417 19.7667 11.625 19.725C11.5083 19.6834 11.4 19.6125 11.3 19.5125L6.72499 14.9375C6.52499 14.7375 6.42915 14.5 6.43749 14.225C6.44582 13.95 6.54999 13.7125 6.74999 13.5125C6.94999 13.3292 7.18332 13.2334 7.44999 13.225C7.71665 13.2167 7.94999 13.3125 8.14999 13.5125L11 16.3625Z" fill="black"/>
</svg>
