<svg width="24" height="24" viewBox="0 0 24 24" fill="none" xmlns="http://www.w3.org/2000/svg">
<path d="M7.0003 11.0658L11.2903 15.3058C11.3833 15.3995 11.4939 15.4739 11.6157 15.5247C11.7376 15.5754 11.8683 15.6016 12.0003 15.6016C12.1323 15.6016 12.263 15.5754 12.3849 15.5247C12.5067 15.4739 12.6173 15.3995 12.7103 15.3058L16.9503 11.0658C17.044 10.9728 17.1184 10.8622 17.1692 10.7403C17.22 10.6185 17.2461 10.4878 17.2461 10.3558C17.2461 10.2238 17.22 10.093 17.1692 9.97119C17.1184 9.84933 17.044 9.73873 16.9503 9.64577C16.7629 9.45952 16.5095 9.35497 16.2453 9.35497C15.9811 9.35497 15.7277 9.45952 15.5403 9.64577L12.0003 13.1858L8.4603 9.64577C8.27404 9.46102 8.02264 9.35687 7.7603 9.35577C7.62869 9.355 7.49823 9.38023 7.37639 9.42999C7.25455 9.47976 7.14374 9.55308 7.0503 9.64577C6.95322 9.73538 6.87487 9.84335 6.81976 9.96342C6.76465 10.0835 6.73389 10.2133 6.72924 10.3453C6.72459 10.4774 6.74615 10.609 6.79267 10.7327C6.8392 10.8563 6.90976 10.9695 7.0003 11.0658Z" fill="black"/>
</svg>
