<svg width="24" height="24" viewBox="0 0 24 24" fill="none" xmlns="http://www.w3.org/2000/svg">
<path fill-rule="evenodd" clip-rule="evenodd" d="M11.2001 3.27999H8.84013C7.53674 3.27999 6.48013 4.3366 6.48013 5.63999C6.48013 6.94338 7.53674 7.99999 8.84013 7.99999H11.2001V3.27999ZM11.2001 1.67999H12.8001H15.1601C17.3472 1.67999 19.12 3.45294 19.12 5.63999C19.12 6.93062 18.5028 8.07705 17.5471 8.79999C18.5028 9.52295 19.12 10.6694 19.12 11.96C19.12 14.147 17.3472 15.92 15.1601 15.92C14.2758 15.92 13.4592 15.6302 12.8001 15.1403V15.92V18.28C12.8001 20.4671 11.0272 22.24 8.84013 22.24C6.65307 22.24 4.88013 20.4671 4.88013 18.28C4.88013 16.9893 5.49754 15.843 6.45312 15.12C5.49754 14.397 4.88013 13.2506 4.88013 11.96C4.88013 10.6694 5.49755 9.52295 6.45315 8.80001C5.49755 8.07705 4.88013 6.93062 4.88013 5.63999C4.88013 3.45294 6.65307 1.67999 8.84013 1.67999H11.2001ZM12.8001 3.27999V7.99999H15.1601C16.4636 7.99999 17.52 6.94338 17.52 5.63999C17.52 4.3366 16.4636 3.27999 15.1601 3.27999H12.8001ZM8.84013 14.32H11.2001V11.9661V11.96V11.9539V9.60001H8.84013C7.53674 9.60001 6.48013 10.6566 6.48013 11.96C6.48013 13.2603 7.53168 14.315 8.83077 14.32L8.84013 14.32ZM6.48013 18.28C6.48013 16.9797 7.53168 15.925 8.83077 15.92L8.84013 15.92H11.2001V18.28C11.2001 19.5834 10.1435 20.64 8.84013 20.64C7.53674 20.64 6.48013 19.5834 6.48013 18.28ZM12.8001 11.9553C12.8027 10.6541 13.8583 9.60001 15.1601 9.60001C16.4636 9.60001 17.52 10.6566 17.52 11.96C17.52 13.2634 16.4636 14.32 15.1601 14.32C13.8583 14.32 12.8027 13.2659 12.8001 11.9647V11.9553Z" fill="black"/>
</svg>
