<svg width="24" height="24" viewBox="0 0 24 24" fill="none" xmlns="http://www.w3.org/2000/svg">
<path d="M16.902 8.92881C16.1097 8.92848 15.3298 9.12443 14.6318 9.49916C14.5681 9.3314 14.4549 9.187 14.3072 9.08513C14.1595 8.98325 13.9842 8.92873 13.8048 8.92881H10.2652C10.149 8.92875 10.0339 8.95159 9.9265 8.99604C9.81911 9.04049 9.72153 9.10566 9.63935 9.18785C9.55717 9.27003 9.49199 9.36761 9.44754 9.475C9.40309 9.58239 9.38025 9.69749 9.38032 9.81371V20.4325C9.38025 20.5487 9.40309 20.6638 9.44754 20.7712C9.49198 20.8786 9.55716 20.9762 9.63935 21.0584C9.72153 21.1406 9.81911 21.2057 9.9265 21.2502C10.0339 21.2946 10.149 21.3175 10.2652 21.3174H13.8048C13.921 21.3175 14.0361 21.2946 14.1435 21.2502C14.2509 21.2057 14.3485 21.1406 14.4307 21.0584C14.5129 20.9762 14.578 20.8786 14.6225 20.7712C14.6669 20.6638 14.6898 20.5487 14.6897 20.4325V15.5656C14.6897 15.3309 14.7829 15.1058 14.9489 14.9398C15.1148 14.7739 15.3399 14.6807 15.5746 14.6807C15.8093 14.6807 16.0344 14.7739 16.2003 14.9398C16.3663 15.1058 16.4595 15.3309 16.4595 15.5656V20.4325C16.4594 20.5487 16.4823 20.6638 16.5267 20.7712C16.5712 20.8786 16.6364 20.9762 16.7185 21.0584C16.8007 21.1406 16.8983 21.2057 17.0057 21.2502C17.1131 21.2946 17.2282 21.3175 17.3444 21.3174H20.884C21.0002 21.3175 21.1153 21.2946 21.2227 21.2502C21.3301 21.2057 21.4277 21.1406 21.5099 21.0584C21.5921 20.9762 21.6572 20.8786 21.7017 20.7712C21.7461 20.6638 21.769 20.5487 21.7689 20.4325V13.7958C21.7673 12.5055 21.254 11.2685 20.3416 10.3561C19.4293 9.4437 18.1923 8.93042 16.902 8.92881ZM19.9991 19.5476H18.2293V15.5656C18.2293 14.8615 17.9496 14.1863 17.4518 13.6884C16.9539 13.1906 16.2787 12.9109 15.5746 12.9109C14.8705 12.9109 14.1953 13.1906 13.6975 13.6884C13.1996 14.1863 12.9199 14.8615 12.9199 15.5656V19.5476H11.1501V10.6986H12.9199V11.3208C12.92 11.5042 12.977 11.683 13.0831 11.8325C13.1892 11.9821 13.3391 12.095 13.5121 12.1557C13.6851 12.2164 13.8727 12.2219 14.049 12.1714C14.2252 12.1209 14.3815 12.017 14.4961 11.8739C14.8933 11.3695 15.438 11.0018 16.0542 10.8219C16.6705 10.6421 17.3275 10.6593 17.9335 10.8709C18.5395 11.0826 19.0644 11.4782 19.4347 12.0026C19.805 12.5269 20.0023 13.1538 19.9991 13.7958V19.5476ZM7.61052 8.92881H4.07092C3.9547 8.92875 3.8396 8.95159 3.73221 8.99604C3.62482 9.04049 3.52724 9.10566 3.44506 9.18785C3.36287 9.27003 3.29769 9.36761 3.25325 9.475C3.2088 9.58239 3.18596 9.69749 3.18602 9.81371V20.4325C3.18596 20.5487 3.2088 20.6638 3.25324 20.7712C3.29769 20.8786 3.36287 20.9762 3.44505 21.0584C3.52724 21.1406 3.62481 21.2057 3.73221 21.2502C3.8396 21.2946 3.9547 21.3175 4.07092 21.3174H7.61052C7.72674 21.3175 7.84184 21.2946 7.94923 21.2502C8.05662 21.2057 8.1542 21.1406 8.23639 21.0584C8.31857 20.9762 8.38375 20.8786 8.42819 20.7712C8.47264 20.6638 8.49548 20.5487 8.49542 20.4325V9.81371C8.49548 9.69749 8.47264 9.58239 8.42819 9.475C8.38375 9.36761 8.31857 9.27003 8.23638 9.18785C8.1542 9.10566 8.05662 9.04049 7.94923 8.99604C7.84184 8.95159 7.72674 8.92875 7.61052 8.92881ZM6.72562 19.5476H4.95582V10.6986H6.72562V19.5476ZM5.85368 2.33012C5.46642 2.30694 5.07848 2.36277 4.71347 2.49422C4.34846 2.62567 4.014 2.82999 3.73043 3.09476C3.44686 3.35952 3.2201 3.6792 3.06396 4.03435C2.90781 4.3895 2.82554 4.7727 2.82213 5.16064C2.81873 5.54859 2.89427 5.93317 3.04416 6.291C3.19405 6.64884 3.41516 6.97245 3.69404 7.24215C3.97292 7.51185 4.30375 7.722 4.6664 7.85984C5.02904 7.99767 5.41594 8.0603 5.80355 8.04392H5.82861C6.21691 8.06698 6.60582 8.01063 6.9716 7.87831C7.33738 7.74599 7.67233 7.54047 7.956 7.27433C8.23967 7.00818 8.46609 6.68699 8.62143 6.33038C8.77677 5.97377 8.85777 5.58923 8.85948 5.20026C8.86119 4.81129 8.78356 4.42605 8.63135 4.06809C8.47915 3.71013 8.25555 3.38697 7.97423 3.11834C7.6929 2.84972 7.35976 2.64128 6.99516 2.50575C6.63056 2.37023 6.24215 2.31047 5.85367 2.33012H5.85368ZM5.82862 6.27412H5.80355C5.65053 6.2927 5.49529 6.27835 5.34827 6.23202C5.20124 6.1857 5.06582 6.10847 4.95108 6.00552C4.83634 5.90257 4.74495 5.77628 4.68302 5.63511C4.62109 5.49395 4.59006 5.34117 4.59201 5.18703C4.59201 4.52681 5.08717 4.09991 5.85368 4.09991C6.00827 4.0793 6.16549 4.09206 6.31473 4.13733C6.46397 4.1826 6.60178 4.25932 6.71888 4.36233C6.83598 4.46534 6.92964 4.59225 6.99356 4.73451C7.05747 4.87677 7.09017 5.03107 7.08943 5.18703C7.08943 5.84724 6.59426 6.27412 5.82862 6.27412Z" fill="black"/>
</svg>
