<svg width="24" height="24" viewBox="0 0 24 24" fill="none" xmlns="http://www.w3.org/2000/svg">
<path d="M12 1.55469C9.87827 1.55469 7.84344 2.39754 6.34315 3.89783C4.84285 5.39812 4 7.43296 4 9.55469C4 14.9547 11.05 21.0547 11.35 21.3147C11.5311 21.4696 11.7616 21.5548 12 21.5548C12.2384 21.5548 12.4689 21.4696 12.65 21.3147C13 21.0547 20 14.9547 20 9.55469C20 7.43296 19.1571 5.39812 17.6569 3.89783C16.1566 2.39754 14.1217 1.55469 12 1.55469ZM12 19.2047C9.87 17.2047 6 12.8947 6 9.55469C6 7.96339 6.63214 6.43727 7.75736 5.31205C8.88258 4.18683 10.4087 3.55469 12 3.55469C13.5913 3.55469 15.1174 4.18683 16.2426 5.31205C17.3679 6.43727 18 7.96339 18 9.55469C18 12.8947 14.13 17.2147 12 19.2047ZM12 5.55469C11.2089 5.55469 10.4355 5.78928 9.77772 6.22881C9.11992 6.66833 8.60723 7.29305 8.30448 8.02395C8.00173 8.75486 7.92252 9.55912 8.07686 10.335C8.2312 11.111 8.61216 11.8237 9.17157 12.3831C9.73098 12.9425 10.4437 13.3235 11.2196 13.4778C11.9956 13.6322 12.7998 13.553 13.5307 13.2502C14.2616 12.9475 14.8864 12.4348 15.3259 11.777C15.7654 11.1192 16 10.3458 16 9.55469C16 8.49382 15.5786 7.47641 14.8284 6.72626C14.0783 5.97611 13.0609 5.55469 12 5.55469ZM12 11.5547C11.6044 11.5547 11.2178 11.4374 10.8889 11.2176C10.56 10.9979 10.3036 10.6855 10.1522 10.3201C10.0009 9.9546 9.96126 9.55247 10.0384 9.16451C10.1156 8.77655 10.3061 8.42018 10.5858 8.14047C10.8655 7.86077 11.2219 7.67029 11.6098 7.59312C11.9978 7.51595 12.3999 7.55555 12.7654 7.70693C13.1308 7.8583 13.4432 8.11465 13.6629 8.44355C13.8827 8.77245 14 9.15912 14 9.55469C14 10.0851 13.7893 10.5938 13.4142 10.9689C13.0391 11.344 12.5304 11.5547 12 11.5547Z" fill="black"/>
</svg>
