<svg width="24" height="24" viewBox="0 0 24 24" fill="none" xmlns="http://www.w3.org/2000/svg">
<path d="M19 3.55469H5C4.20435 3.55469 3.44129 3.87076 2.87868 4.43337C2.31607 4.99598 2 5.75904 2 6.55469V16.5547C2 17.3503 2.31607 18.1134 2.87868 18.676C3.44129 19.2386 4.20435 19.5547 5 19.5547H19C19.7956 19.5547 20.5587 19.2386 21.1213 18.676C21.6839 18.1134 22 17.3503 22 16.5547V6.55469C22 5.75904 21.6839 4.99598 21.1213 4.43337C20.5587 3.87076 19.7956 3.55469 19 3.55469ZM18.59 5.55469L12.71 11.4347C12.617 11.5284 12.5064 11.6028 12.3846 11.6536C12.2627 11.7043 12.132 11.7305 12 11.7305C11.868 11.7305 11.7373 11.7043 11.6154 11.6536C11.4936 11.6028 11.383 11.5284 11.29 11.4347L5.41 5.55469H18.59ZM20 16.5547C20 16.8199 19.8946 17.0743 19.7071 17.2618C19.5196 17.4493 19.2652 17.5547 19 17.5547H5C4.73478 17.5547 4.48043 17.4493 4.29289 17.2618C4.10536 17.0743 4 16.8199 4 16.5547V6.96469L9.88 12.8447C10.4425 13.4065 11.205 13.722 12 13.722C12.795 13.722 13.5575 13.4065 14.12 12.8447L20 6.96469V16.5547Z" fill="black"/>
</svg>
